<svg width="32" height="42" viewBox="0 0 32 42" fill="none" xmlns="http://www.w3.org/2000/svg">
  <path d="M16 0C7.16344 0 0 7.16344 0 16C0 24.8366 16 42 16 42C16 42 32 24.8366 32 16C32 7.16344 24.8366 0 16 0Z" fill="#D97706"/>
  <path d="M16 0C7.16344 0 0 7.16344 0 16C0 24.8366 16 42 16 42C16 42 32 24.8366 32 16C32 7.16344 24.8366 0 16 0Z" fill="url(#paint0_linear)"/>
  <circle cx="16" cy="15" r="6" fill="white"/>
  <defs>
    <linearGradient id="paint0_linear" x1="16" y1="0" x2="16" y2="42" gradientUnits="userSpaceOnUse">
      <stop stop-color="#EA580C"/>
      <stop offset="1" stop-color="#C2410C"/>
    </linearGradient>
  </defs>
</svg>
